
<global>
ampeg_attack=0.001
ampeg_release=1.5
</global>

<group>
color=red
group_label=MainHits_RR2
seq_length=4
seq_position=1

<region>
hivel=103
key=D3
lovel=78
offset=481
sample=Bass_a4_HardMallets_Center_Hits_F_D4_RR2.opus
</region>

<region>
hivel=127
key=D3
lovel=104
offset=493
sample=Bass_a4_HardMallets_Center_Hits_FF_D4_RR2.opus
</region>

<region>
hivel=77
key=D3
lovel=52
offset=481
sample=Bass_a4_HardMallets_Center_Hits_MF_D4_RR2.opus
</region>

<region>
hivel=51
key=D3
lovel=26
offset=482
sample=Bass_a4_HardMallets_Center_Hits_MP_D4_RR2.opus
</region>

<region>
hivel=25
key=D3
lovel=0
offset=3319
sample=Bass_a4_HardMallets_Center_Hits_P_D4_RR2.opus
</region>

<region>
hivel=103
key=E3
lovel=78
offset=249
sample=Bass_a4_HardMallets_Edge_Hits_F_D4_RR2.opus
</region>

<region>
hivel=127
key=E3
lovel=104
offset=790
sample=Bass_a4_HardMallets_Edge_Hits_FF_D4_RR2.opus
</region>

<region>
hivel=77
key=E3
lovel=52
offset=2017
sample=Bass_a4_HardMallets_Edge_Hits_MF_D4_RR2.opus
</region>

<region>
hivel=51
key=E3
lovel=26
offset=4296
sample=Bass_a4_HardMallets_Edge_Hits_MP_D4_RR2.opus
</region>

<region>
hivel=25
key=E3
lovel=0
offset=5311
sample=Bass_a4_HardMallets_Edge_Hits_P_D4_RR2.opus
</region>

<region>
hivel=103
key=D#3
lovel=78
offset=429
sample=Bass_a4_HardMallets_Halfway_Hits_F_D4_RR2.opus
</region>

<region>
hivel=127
key=D#3
lovel=104
offset=297
sample=Bass_a4_HardMallets_Halfway_Hits_FF_D4_RR2.opus
</region>

<region>
hivel=77
key=D#3
lovel=52
offset=424
sample=Bass_a4_HardMallets_Halfway_Hits_MF_D4_RR2.opus
</region>

<region>
hivel=51
key=D#3
lovel=26
offset=480
sample=Bass_a4_HardMallets_Halfway_Hits_MP_D4_RR2.opus
</region>

<region>
hivel=25
key=D#3
lovel=0
offset=3080
sample=Bass_a4_HardMallets_Halfway_Hits_P_D4_RR2.opus
</region>
</group>

<group>
color=red
group_label=MainHits_RR4
seq_length=4
seq_position=2

<region>
hivel=103
key=D3
lovel=78
offset=481
sample=Bass_a4_HardMallets_Center_Hits_F_D4_RR4.opus
</region>

<region>
hivel=127
key=D3
lovel=104
offset=493
sample=Bass_a4_HardMallets_Center_Hits_FF_D4_RR4.opus
</region>

<region>
hivel=77
key=D3
lovel=52
offset=481
sample=Bass_a4_HardMallets_Center_Hits_MF_D4_RR4.opus
</region>

<region>
hivel=51
key=D3
lovel=26
offset=481
sample=Bass_a4_HardMallets_Center_Hits_MP_D4_RR4.opus
</region>

<region>
hivel=25
key=D3
lovel=0
offset=482
sample=Bass_a4_HardMallets_Center_Hits_P_D4_RR4.opus
</region>

<region>
hivel=103
key=E3
lovel=78
offset=1989
sample=Bass_a4_HardMallets_Edge_Hits_F_D4_RR4.opus
</region>

<region>
hivel=127
key=E3
lovel=104
offset=328
sample=Bass_a4_HardMallets_Edge_Hits_FF_D4_RR4.opus
</region>

<region>
hivel=77
key=E3
lovel=52
offset=4663
sample=Bass_a4_HardMallets_Edge_Hits_MF_D4_RR4.opus
</region>

<region>
hivel=51
key=E3
lovel=26
offset=480
sample=Bass_a4_HardMallets_Edge_Hits_MP_D4_RR4.opus
</region>

<region>
hivel=25
key=E3
lovel=0
offset=4732
sample=Bass_a4_HardMallets_Edge_Hits_P_D4_RR4.opus
</region>

<region>
hivel=103
key=D#3
lovel=78
offset=267
sample=Bass_a4_HardMallets_Halfway_Hits_F_D4_RR4.opus
</region>

<region>
hivel=127
key=D#3
lovel=104
offset=274
sample=Bass_a4_HardMallets_Halfway_Hits_FF_D4_RR4.opus
</region>

<region>
hivel=77
key=D#3
lovel=52
offset=417
sample=Bass_a4_HardMallets_Halfway_Hits_MF_D4_RR4.opus
</region>

<region>
hivel=51
key=D#3
lovel=26
offset=480
sample=Bass_a4_HardMallets_Halfway_Hits_MP_D4_RR4.opus
</region>

<region>
hivel=25
key=D#3
lovel=0
offset=6609
sample=Bass_a4_HardMallets_Halfway_Hits_P_D4_RR4.opus
</region>
</group>

<group>
color=red
group_label=MainHits_RR6
seq_length=4
seq_position=3

<region>
hivel=103
key=D3
lovel=78
offset=481
sample=Bass_a4_HardMallets_Center_Hits_F_D4_RR6.opus
</region>

<region>
hivel=127
key=D3
lovel=104
offset=493
sample=Bass_a4_HardMallets_Center_Hits_FF_D4_RR6.opus
</region>

<region>
hivel=77
key=D3
lovel=52
offset=481
sample=Bass_a4_HardMallets_Center_Hits_MF_D4_RR6.opus
</region>

<region>
hivel=51
key=D3
lovel=26
offset=482
sample=Bass_a4_HardMallets_Center_Hits_MP_D4_RR6.opus
</region>

<region>
hivel=25
key=D3
lovel=0
offset=482
sample=Bass_a4_HardMallets_Center_Hits_P_D4_RR6.opus
</region>

<region>
hivel=103
key=E3
lovel=78
offset=299
sample=Bass_a4_HardMallets_Edge_Hits_F_D4_RR6.opus
</region>

<region>
hivel=127
key=E3
lovel=104
offset=909
sample=Bass_a4_HardMallets_Edge_Hits_FF_D4_RR6.opus
</region>

<region>
hivel=77
key=E3
lovel=52
offset=5169
sample=Bass_a4_HardMallets_Edge_Hits_MF_D4_RR6.opus
</region>

<region>
hivel=51
key=E3
lovel=26
offset=2978
sample=Bass_a4_HardMallets_Edge_Hits_MP_D4_RR6.opus
</region>

<region>
hivel=25
key=E3
lovel=0
offset=4751
sample=Bass_a4_HardMallets_Edge_Hits_P_D4_RR6.opus
</region>

<region>
hivel=103
key=D#3
lovel=78
offset=258
sample=Bass_a4_HardMallets_Halfway_Hits_F_D4_RR6.opus
</region>

<region>
hivel=127
key=D#3
lovel=104
offset=370
sample=Bass_a4_HardMallets_Halfway_Hits_FF_D4_RR6.opus
</region>

<region>
hivel=77
key=D#3
lovel=52
offset=481
sample=Bass_a4_HardMallets_Halfway_Hits_MF_D4_RR6.opus
</region>

<region>
hivel=51
key=D#3
lovel=26
offset=481
sample=Bass_a4_HardMallets_Halfway_Hits_MP_D4_RR6.opus
</region>

<region>
hivel=25
key=D#3
lovel=0
offset=481
sample=Bass_a4_HardMallets_Halfway_Hits_P_D4_RR6.opus
</region>
</group>

<group>
color=red
group_label=MainHIts_RR8
seq_length=4
seq_position=4

<region>
hivel=103
key=D3
lovel=78
offset=481
sample=Bass_a4_HardMallets_Center_Hits_F_D4_RR8.opus
</region>

<region>
hivel=127
key=D3
lovel=104
offset=492
sample=Bass_a4_HardMallets_Center_Hits_FF_D4_RR8.opus
</region>

<region>
hivel=77
key=D3
lovel=52
offset=482
sample=Bass_a4_HardMallets_Center_Hits_MF_D4_RR8.opus
</region>

<region>
hivel=51
key=D3
lovel=26
offset=481
sample=Bass_a4_HardMallets_Center_Hits_MP_D4_RR8.opus
</region>

<region>
hivel=25
key=D3
lovel=0
offset=938
sample=Bass_a4_HardMallets_Center_Hits_P_D4_RR8.opus
</region>

<region>
hivel=103
key=E3
lovel=78
offset=1040
sample=Bass_a4_HardMallets_Edge_Hits_F_D4_RR8.opus
</region>

<region>
hivel=127
key=E3
lovel=104
offset=580
sample=Bass_a4_HardMallets_Edge_Hits_FF_D4_RR8.opus
</region>

<region>
hivel=77
key=E3
lovel=52
offset=1765
sample=Bass_a4_HardMallets_Edge_Hits_MF_D4_RR8.opus
</region>

<region>
hivel=51
key=E3
lovel=26
offset=7349
sample=Bass_a4_HardMallets_Edge_Hits_MP_D4_RR8.opus
</region>

<region>
hivel=25
key=E3
lovel=0
offset=7054
sample=Bass_a4_HardMallets_Edge_Hits_P_D4_RR8.opus
</region>

<region>
hivel=103
key=D#3
lovel=78
offset=313
sample=Bass_a4_HardMallets_Halfway_Hits_F_D4_RR8.opus
</region>

<region>
hivel=127
key=D#3
lovel=104
offset=424
sample=Bass_a4_HardMallets_Halfway_Hits_FF_D4_RR8.opus
</region>

<region>
hivel=77
key=D#3
lovel=52
offset=481
sample=Bass_a4_HardMallets_Halfway_Hits_MF_D4_RR8.opus
</region>

<region>
hivel=51
key=D#3
lovel=26
offset=481
sample=Bass_a4_HardMallets_Halfway_Hits_MP_D4_RR8.opus
</region>

<region>
hivel=25
key=D#3
lovel=0
offset=5897
sample=Bass_a4_HardMallets_Halfway_Hits_P_D4_RR8.opus
</region>
</group>

<group>
color=green
group_label=AltHits_RR2
seq_length=2
seq_position=1

<region>
hivel=103
key=D4
lovel=78
offset=482
sample=Bass_a4_HardMallets_Center_Buzz_Stroke_F_D4_RR2.opus
</region>

<region>
hivel=127
key=D4
lovel=104
offset=482
sample=Bass_a4_HardMallets_Center_Buzz_Stroke_FF_D4_RR2.opus
</region>

<region>
hivel=77
key=D4
lovel=52
offset=481
sample=Bass_a4_HardMallets_Center_Buzz_Stroke_MF_D4_RR2.opus
</region>

<region>
hivel=51
key=D4
lovel=26
offset=482
sample=Bass_a4_HardMallets_Center_Buzz_Stroke_MP_D4_RR2.opus
</region>

<region>
hivel=25
key=D4
lovel=0
offset=4147
sample=Bass_a4_HardMallets_Center_Buzz_Stroke_P_D4_RR2.opus
</region>

<region>
hivel=103
key=G4
lovel=78
offset=481
sample=Bass_a4_HardMallets_Center_Dry_Buzz_Stroke_F_D4_RR2.opus
</region>

<region>
hivel=127
key=G4
lovel=104
offset=481
sample=Bass_a4_HardMallets_Center_Dry_Buzz_Stroke_FF_D4_RR2.opus
</region>

<region>
hivel=77
key=G4
lovel=52
offset=481
sample=Bass_a4_HardMallets_Center_Dry_Buzz_Stroke_MF_D4_RR2.opus
</region>

<region>
hivel=51
key=G4
lovel=26
offset=482
sample=Bass_a4_HardMallets_Center_Dry_Buzz_Stroke_MP_D4_RR2.opus
</region>

<region>
hivel=25
key=G4
lovel=0
offset=484
sample=Bass_a4_HardMallets_Center_Dry_Buzz_Stroke_P_D4_RR2.opus
</region>

<region>
hivel=103
key=D5
lovel=78
offset=509
sample=Bass_a4_HardMallets_Center_Rim Shot_F_D4_RR2.opus
</region>

<region>
hivel=127
key=D5
lovel=104
offset=494
sample=Bass_a4_HardMallets_Center_Rim Shot_FF_D4_RR2.opus
</region>

<region>
hivel=77
key=D5
lovel=52
offset=517
sample=Bass_a4_HardMallets_Center_Rim Shot_MF_D4_RR2.opus
</region>

<region>
hivel=51
key=D5
lovel=26
offset=525
sample=Bass_a4_HardMallets_Center_Rim Shot_MP_D4_RR2.opus
</region>

<region>
hivel=25
key=D5
lovel=0
offset=3689
sample=Bass_a4_HardMallets_Center_Rim Shot_P_D4_RR2.opus
</region>

<region>
hivel=103
key=D#5
lovel=78
offset=5971
sample=Bass_a4_HardMallets_Center_Rim_Hit_F_D4_RR2.opus
</region>

<region>
hivel=127
key=D#5
lovel=104
offset=6518
sample=Bass_a4_HardMallets_Center_Rim_Hit_FF_D4_RR2.opus
</region>

<region>
hivel=77
key=D#5
lovel=52
offset=5620
sample=Bass_a4_HardMallets_Center_Rim_Hit_MF_D4_RR2.opus
</region>

<region>
hivel=51
key=D#5
lovel=26
offset=6240
sample=Bass_a4_HardMallets_Center_Rim_Hit_MP_D4_RR2.opus
</region>

<region>
hivel=25
key=D#5
lovel=0
offset=6507
sample=Bass_a4_HardMallets_Center_Rim_Hit_P_D4_RR2.opus
</region>

<region>
hivel=103
key=D6
lovel=78
offset=6496
sample=Bass_a4_HardMallets_Center_Shell_F_D4_RR2.opus
</region>

<region>
hivel=127
key=D6
lovel=104
offset=5841
sample=Bass_a4_HardMallets_Center_Shell_FF_D4_RR2.opus
</region>

<region>
hivel=77
key=D6
lovel=52
offset=6587
sample=Bass_a4_HardMallets_Center_Shell_MF_D4_RR2.opus
</region>

<region>
hivel=51
key=D6
lovel=26
offset=4656
sample=Bass_a4_HardMallets_Center_Shell_MP_D4_RR2.opus
</region>

<region>
hivel=25
key=D6
lovel=0
offset=4627
sample=Bass_a4_HardMallets_Center_Shell_P_D4_RR2.opus
</region>

<region>
hivel=103
key=E4
lovel=78
offset=480
sample=Bass_a4_HardMallets_Edge_Buzz_Stroke_F_D4_RR2.opus
</region>

<region>
hivel=127
key=E4
lovel=104
offset=246
sample=Bass_a4_HardMallets_Edge_Buzz_Stroke_FF_D4_RR2.opus
</region>

<region>
hivel=77
key=E4
lovel=52
offset=2837
sample=Bass_a4_HardMallets_Edge_Buzz_Stroke_MF_D4_RR2.opus
</region>

<region>
hivel=51
key=E4
lovel=26
offset=7313
sample=Bass_a4_HardMallets_Edge_Buzz_Stroke_MP_D4_RR2.opus
</region>

<region>
hivel=25
key=E4
lovel=0
offset=6720
sample=Bass_a4_HardMallets_Edge_Buzz_Stroke_P_D4_RR2.opus
</region>

<region>
hivel=103
key=A4
lovel=78
offset=444
sample=Bass_a4_HardMallets_Edge_Dry_Buzz_Stroke_F_D4_RR2.opus
</region>

<region>
hivel=127
key=A4
lovel=104
offset=258
sample=Bass_a4_HardMallets_Edge_Dry_Buzz_Stroke_FF_D4_RR2.opus
</region>

<region>
hivel=77
key=A4
lovel=52
offset=481
sample=Bass_a4_HardMallets_Edge_Dry_Buzz_Stroke_MF_D4_RR2.opus
</region>

<region>
hivel=51
key=A4
lovel=26
offset=5635
sample=Bass_a4_HardMallets_Edge_Dry_Buzz_Stroke_MP_D4_RR2.opus
</region>

<region>
hivel=25
key=A4
lovel=0
offset=4307
sample=Bass_a4_HardMallets_Edge_Dry_Buzz_Stroke_P_D4_RR2.opus
</region>

<region>
hivel=103
key=D#4
lovel=78
offset=480
sample=Bass_a4_HardMallets_Halfway_Buzz_Stroke_F_D4_RR2.opus
</region>

<region>
hivel=127
key=D#4
lovel=104
offset=481
sample=Bass_a4_HardMallets_Halfway_Buzz_Stroke_FF_D4_RR2.opus
</region>

<region>
hivel=77
key=D#4
lovel=52
offset=481
sample=Bass_a4_HardMallets_Halfway_Buzz_Stroke_MF_D4_RR2.opus
</region>

<region>
hivel=51
key=D#4
lovel=26
offset=482
sample=Bass_a4_HardMallets_Halfway_Buzz_Stroke_MP_D4_RR2.opus
</region>

<region>
hivel=25
key=D#4
lovel=0
offset=481
sample=Bass_a4_HardMallets_Halfway_Buzz_Stroke_P_D4_RR2.opus
</region>

<region>
hivel=103
key=G#4
lovel=78
offset=480
sample=Bass_a4_HardMallets_Halfway_Dry_Buzz_Stroke_F_D4_RR2.opus
</region>

<region>
hivel=127
key=G#4
lovel=104
offset=255
sample=Bass_a4_HardMallets_Halfway_Dry_Buzz_Stroke_FF_D4_RR2.opus
</region>

<region>
hivel=77
key=G#4
lovel=52
offset=480
sample=Bass_a4_HardMallets_Halfway_Dry_Buzz_Stroke_MF_D4_RR2.opus
</region>

<region>
hivel=51
key=G#4
lovel=26
offset=482
sample=Bass_a4_HardMallets_Halfway_Dry_Buzz_Stroke_MP_D4_RR2.opus
</region>

<region>
hivel=25
key=G#4
lovel=0
offset=481
sample=Bass_a4_HardMallets_Halfway_Dry_Buzz_Stroke_P_D4_RR2.opus
</region>
</group>

<group>
color=green
group_label=AltHits_RR4
seq_length=2
seq_position=2

<region>
hivel=103
key=D4
lovel=78
offset=481
sample=Bass_a4_HardMallets_Center_Buzz_Stroke_F_D4_RR4.opus
</region>

<region>
hivel=127
key=D4
lovel=104
offset=481
sample=Bass_a4_HardMallets_Center_Buzz_Stroke_FF_D4_RR4.opus
</region>

<region>
hivel=77
key=D4
lovel=52
offset=480
sample=Bass_a4_HardMallets_Center_Buzz_Stroke_MF_D4_RR4.opus
</region>

<region>
hivel=51
key=D4
lovel=26
offset=482
sample=Bass_a4_HardMallets_Center_Buzz_Stroke_MP_D4_RR4.opus
</region>

<region>
hivel=25
key=D4
lovel=0
offset=4263
sample=Bass_a4_HardMallets_Center_Buzz_Stroke_P_D4_RR4.opus
</region>

<region>
hivel=103
key=G4
lovel=78
offset=482
sample=Bass_a4_HardMallets_Center_Dry_Buzz_Stroke_F_D4_RR4.opus
</region>

<region>
hivel=127
key=G4
lovel=104
offset=482
sample=Bass_a4_HardMallets_Center_Dry_Buzz_Stroke_FF_D4_RR4.opus
</region>

<region>
hivel=77
key=G4
lovel=52
offset=482
sample=Bass_a4_HardMallets_Center_Dry_Buzz_Stroke_MF_D4_RR4.opus
</region>

<region>
hivel=51
key=G4
lovel=26
offset=482
sample=Bass_a4_HardMallets_Center_Dry_Buzz_Stroke_MP_D4_RR4.opus
</region>

<region>
hivel=25
key=G4
lovel=0
offset=483
sample=Bass_a4_HardMallets_Center_Dry_Buzz_Stroke_P_D4_RR4.opus
</region>

<region>
hivel=103
key=D5
lovel=78
offset=493
sample=Bass_a4_HardMallets_Center_Rim Shot_F_D4_RR4.opus
</region>

<region>
hivel=127
key=D5
lovel=104
offset=482
sample=Bass_a4_HardMallets_Center_Rim Shot_FF_D4_RR4.opus
</region>

<region>
hivel=77
key=D5
lovel=52
offset=504
sample=Bass_a4_HardMallets_Center_Rim Shot_MF_D4_RR4.opus
</region>

<region>
hivel=51
key=D5
lovel=26
offset=484
sample=Bass_a4_HardMallets_Center_Rim Shot_MP_D4_RR4.opus
</region>

<region>
hivel=25
key=D5
lovel=0
offset=5225
sample=Bass_a4_HardMallets_Center_Rim Shot_P_D4_RR4.opus
</region>

<region>
hivel=103
key=D#5
lovel=78
offset=6210
sample=Bass_a4_HardMallets_Center_Rim_Hit_F_D4_RR4.opus
</region>

<region>
hivel=127
key=D#5
lovel=104
offset=2470
sample=Bass_a4_HardMallets_Center_Rim_Hit_FF_D4_RR4.opus
</region>

<region>
hivel=77
key=D#5
lovel=52
offset=7895
sample=Bass_a4_HardMallets_Center_Rim_Hit_MF_D4_RR4.opus
</region>

<region>
hivel=51
key=D#5
lovel=26
offset=6375
sample=Bass_a4_HardMallets_Center_Rim_Hit_MP_D4_RR4.opus
</region>

<region>
hivel=25
key=D#5
lovel=0
offset=5026
sample=Bass_a4_HardMallets_Center_Rim_Hit_P_D4_RR4.opus
</region>

<region>
hivel=103
key=D6
lovel=78
offset=7179
sample=Bass_a4_HardMallets_Center_Shell_F_D4_RR4.opus
</region>

<region>
hivel=127
key=D6
lovel=104
offset=5037
sample=Bass_a4_HardMallets_Center_Shell_FF_D4_RR4.opus
</region>

<region>
hivel=77
key=D6
lovel=52
offset=6837
sample=Bass_a4_HardMallets_Center_Shell_MF_D4_RR4.opus
</region>

<region>
hivel=51
key=D6
lovel=26
offset=5085
sample=Bass_a4_HardMallets_Center_Shell_MP_D4_RR4.opus
</region>

<region>
hivel=25
key=D6
lovel=0
offset=5499
sample=Bass_a4_HardMallets_Center_Shell_P_D4_RR4.opus
</region>

<region>
hivel=103
key=E4
lovel=78
offset=340
sample=Bass_a4_HardMallets_Edge_Buzz_Stroke_F_D4_RR4.opus
</region>

<region>
hivel=127
key=E4
lovel=104
offset=480
sample=Bass_a4_HardMallets_Edge_Buzz_Stroke_FF_D4_RR4.opus
</region>

<region>
hivel=77
key=E4
lovel=52
offset=6327
sample=Bass_a4_HardMallets_Edge_Buzz_Stroke_MF_D4_RR4.opus
</region>

<region>
hivel=51
key=E4
lovel=26
offset=6459
sample=Bass_a4_HardMallets_Edge_Buzz_Stroke_MP_D4_RR4.opus
</region>

<region>
hivel=25
key=E4
lovel=0
offset=5756
sample=Bass_a4_HardMallets_Edge_Buzz_Stroke_P_D4_RR4.opus
</region>

<region>
hivel=103
key=A4
lovel=78
offset=481
sample=Bass_a4_HardMallets_Edge_Dry_Buzz_Stroke_F_D4_RR4.opus
</region>

<region>
hivel=127
key=A4
lovel=104
offset=480
sample=Bass_a4_HardMallets_Edge_Dry_Buzz_Stroke_FF_D4_RR4.opus
</region>

<region>
hivel=77
key=A4
lovel=52
offset=4529
sample=Bass_a4_HardMallets_Edge_Dry_Buzz_Stroke_MF_D4_RR4.opus
</region>

<region>
hivel=51
key=A4
lovel=26
offset=6607
sample=Bass_a4_HardMallets_Edge_Dry_Buzz_Stroke_MP_D4_RR4.opus
</region>

<region>
hivel=25
key=A4
lovel=0
offset=4560
sample=Bass_a4_HardMallets_Edge_Dry_Buzz_Stroke_P_D4_RR4.opus
</region>

<region>
hivel=103
key=D#4
lovel=78
offset=480
sample=Bass_a4_HardMallets_Halfway_Buzz_Stroke_F_D4_RR4.opus
</region>

<region>
hivel=127
key=D#4
lovel=104
offset=480
sample=Bass_a4_HardMallets_Halfway_Buzz_Stroke_FF_D4_RR4.opus
</region>

<region>
hivel=77
key=D#4
lovel=52
offset=435
sample=Bass_a4_HardMallets_Halfway_Buzz_Stroke_MF_D4_RR4.opus
</region>

<region>
hivel=51
key=D#4
lovel=26
offset=482
sample=Bass_a4_HardMallets_Halfway_Buzz_Stroke_MP_D4_RR4.opus
</region>

<region>
hivel=25
key=D#4
lovel=0
offset=482
sample=Bass_a4_HardMallets_Halfway_Buzz_Stroke_P_D4_RR4.opus
</region>

<region>
hivel=103
key=G#4
lovel=78
offset=482
sample=Bass_a4_HardMallets_Halfway_Dry_Buzz_Stroke_F_D4_RR4.opus
</region>

<region>
hivel=127
key=G#4
lovel=104
offset=481
sample=Bass_a4_HardMallets_Halfway_Dry_Buzz_Stroke_FF_D4_RR4.opus
</region>

<region>
hivel=77
key=G#4
lovel=52
offset=481
sample=Bass_a4_HardMallets_Halfway_Dry_Buzz_Stroke_MF_D4_RR4.opus
</region>

<region>
hivel=51
key=G#4
lovel=26
offset=482
sample=Bass_a4_HardMallets_Halfway_Dry_Buzz_Stroke_MP_D4_RR4.opus
</region>

<region>
hivel=25
key=G#4
lovel=0
offset=483
sample=Bass_a4_HardMallets_Halfway_Dry_Buzz_Stroke_P_D4_RR4.opus
</region>
</group>

<group>
amp_veltrack=0
ampeg_attack=0.001
ampeg_release=0.05
group_label=Rolls_RR1_0-25
seq_length=2
seq_position=1
xfin_hicc1=25
xfout_hicc1=50
xfout_locc1=25

<region>
hivel=127
key=D2
loop_end=116397
loop_mode=loop_continuous
loop_start=28764
loop_xfade=21631
lovel=1
offset=485
sample=Bass_a4_HardMallets_Center_Buzz_Roll_P_D4_RR1.opus
</region>

<region>
hivel=127
key=F2
loop_end=116397
loop_mode=loop_continuous
loop_start=26329
loop_xfade=21631
lovel=1
offset=6306
sample=Bass_a4_HardMallets_Center_Rim_Buzz_Roll_P_D4_RR1.opus
</region>

<region>
hivel=127
key=D#2
loop_end=116397
loop_mode=loop_continuous
loop_start=28926
loop_xfade=21631
lovel=1
offset=2112
sample=Bass_a4_HardMallets_Edge_Buzz_Roll_P_D4_RR1.opus
</region>

<region>
hivel=127
key=E2
loop_end=116397
loop_mode=loop_continuous
loop_start=29684
loop_xfade=21631
lovel=1
offset=483
sample=Bass_a4_HardMallets_Halfway_Buzz_Roll_P_D4_RR1.opus
</region>
</group>

<group>
amp_veltrack=0
ampeg_attack=0.001
ampeg_release=0.05
group_label=Rolls_RR1_26-51
seq_length=2
seq_position=1
xfin_hicc1=51
xfin_locc1=26
xfout_hicc1=76
xfout_locc1=51

<region>
hivel=127
key=D2
loop_end=113102
loop_mode=loop_continuous
loop_start=21019
loop_xfade=21019
lovel=1
offset=483
sample=Bass_a4_HardMallets_Center_Buzz_Roll_MP_D4_RR1.opus
</region>

<region>
hivel=127
key=F2
loop_end=116397
loop_mode=loop_continuous
loop_start=27307
loop_xfade=21631
lovel=1
offset=6262
sample=Bass_a4_HardMallets_Center_Rim_Buzz_Roll_MP_D4_RR1.opus
</region>

<region>
hivel=127
key=D#2
loop_end=116397
loop_mode=loop_continuous
loop_start=29619
loop_xfade=21631
lovel=1
offset=481
sample=Bass_a4_HardMallets_Edge_Buzz_Roll_MP_D4_RR1.opus
</region>

<region>
hivel=127
key=E2
loop_end=112873
loop_mode=loop_continuous
loop_start=20976
loop_xfade=20976
lovel=1
offset=481
sample=Bass_a4_HardMallets_Halfway_Buzz_Roll_MP_D4_RR1.opus
</region>
</group>

<group>
amp_veltrack=0
ampeg_attack=0.001
ampeg_release=0.05
group_label=Rolls_RR1_52-77
seq_length=2
seq_position=1
xfin_hicc1=77
xfin_locc1=52
xfout_hicc1=102
xfout_locc1=77

<region>
hivel=127
key=D2
loop_end=113656
loop_mode=loop_continuous
loop_start=21122
loop_xfade=21122
lovel=1
offset=481
sample=Bass_a4_HardMallets_Center_Buzz_Roll_MF_D4_RR1.opus
</region>

<region>
hivel=127
key=F2
loop_end=116397
loop_mode=loop_continuous
loop_start=27804
loop_xfade=21631
lovel=1
offset=3401
sample=Bass_a4_HardMallets_Center_Rim_Buzz_Roll_MF_D4_RR1.opus
</region>

<region>
hivel=127
key=D#2
loop_end=114125
loop_mode=loop_continuous
loop_start=21209
loop_xfade=21209
lovel=1
offset=481
sample=Bass_a4_HardMallets_Edge_Buzz_Roll_MF_D4_RR1.opus
</region>

<region>
hivel=127
key=E2
loop_end=113283
loop_mode=loop_continuous
loop_start=21052
loop_xfade=21052
lovel=1
offset=482
sample=Bass_a4_HardMallets_Halfway_Buzz_Roll_MF_D4_RR1.opus
</region>
</group>

<group>
amp_veltrack=0
ampeg_attack=0.001
ampeg_release=0.05
group_label=Rolls_RR1_78-103
seq_length=2
seq_position=1
xfin_hicc1=103
xfin_locc1=78
xfout_hicc1=127
xfout_locc1=103

<region>
hivel=127
key=D2
loop_end=113106
loop_mode=loop_continuous
loop_start=21019
loop_xfade=21019
lovel=1
offset=481
sample=Bass_a4_HardMallets_Center_Buzz_Roll_F_D4_RR1.opus
</region>

<region>
hivel=127
key=F2
loop_end=113154
loop_mode=loop_continuous
loop_start=21028
loop_xfade=21028
lovel=1
offset=406
sample=Bass_a4_HardMallets_Center_Rim_Buzz_Roll_F_D4_RR1.opus
</region>

<region>
hivel=127
key=D#2
loop_end=114985
loop_mode=loop_continuous
loop_start=25068
loop_xfade=21369
lovel=1
offset=480
sample=Bass_a4_HardMallets_Edge_Buzz_Roll_F_D4_RR1.opus
</region>

<region>
hivel=127
key=E2
loop_end=113270
loop_mode=loop_continuous
loop_start=21050
loop_xfade=21050
lovel=1
offset=481
sample=Bass_a4_HardMallets_Halfway_Buzz_Roll_F_D4_RR1.opus
</region>
</group>

<group>
amp_veltrack=0
ampeg_attack=0.001
ampeg_release=0.05
group_label=Rolls_RR1_104-127
seq_length=2
seq_position=1
xfin_hicc1=127
xfin_locc1=104
xfout_hicc1=127
xfout_locc1=127

<region>
hivel=127
key=D2
loop_end=113296
loop_mode=loop_continuous
loop_start=21055
loop_xfade=21055
lovel=1
offset=482
sample=Bass_a4_HardMallets_Center_Buzz_Roll_FF_D4_RR1.opus
</region>

<region>
hivel=127
key=F2
loop_end=113421
loop_mode=loop_continuous
loop_start=21078
loop_xfade=21078
lovel=1
offset=409
sample=Bass_a4_HardMallets_Center_Rim_Buzz_Roll_FF_D4_RR1.opus
</region>

<region>
hivel=127
key=D#2
loop_end=113521
loop_mode=loop_continuous
loop_start=21097
loop_xfade=21097
lovel=1
offset=481
sample=Bass_a4_HardMallets_Edge_Buzz_Roll_FF_D4_RR1.opus
</region>

<region>
hivel=127
key=E2
loop_end=114570
loop_mode=loop_continuous
loop_start=21292
loop_xfade=21292
lovel=1
offset=481
sample=Bass_a4_HardMallets_Halfway_Buzz_Roll_FF_D4_RR1.opus
</region>
</group>

<group>
amp_veltrack=0
ampeg_attack=0.001
ampeg_release=0.05
group_label=Rolls_RR2_0-25
seq_length=2
seq_position=2
xfin_hicc1=25
xfout_hicc1=50
xfout_locc1=25

<region>
hivel=127
key=D2
loop_end=116397
loop_mode=loop_continuous
loop_start=27364
loop_xfade=21631
lovel=1
offset=491
sample=Bass_a4_HardMallets_Center_Buzz_Roll_P_D4_RR2.opus
</region>

<region>
hivel=127
key=F2
loop_end=116397
loop_mode=loop_continuous
loop_start=26023
loop_xfade=21631
lovel=1
offset=5163
sample=Bass_a4_HardMallets_Center_Rim_Buzz_Roll_P_D4_RR2.opus
</region>

<region>
hivel=127
key=D#2
loop_end=116397
loop_mode=loop_continuous
loop_start=28435
loop_xfade=21631
lovel=1
offset=5689
sample=Bass_a4_HardMallets_Edge_Buzz_Roll_P_D4_RR2.opus
</region>

<region>
hivel=127
key=E2
loop_end=116397
loop_mode=loop_continuous
loop_start=28555
loop_xfade=21631
lovel=1
offset=486
sample=Bass_a4_HardMallets_Halfway_Buzz_Roll_P_D4_RR2.opus
</region>
</group>

<group>
amp_veltrack=0
ampeg_attack=0.001
ampeg_release=0.05
group_label=Rolls_RR2_26-51
seq_length=2
seq_position=2
xfin_hicc1=51
xfin_locc1=26
xfout_hicc1=76
xfout_locc1=51

<region>
hivel=127
key=D2
loop_end=112904
loop_mode=loop_continuous
loop_start=20982
loop_xfade=20982
lovel=1
offset=482
sample=Bass_a4_HardMallets_Center_Buzz_Roll_MP_D4_RR2.opus
</region>

<region>
hivel=127
key=F2
loop_end=116397
loop_mode=loop_continuous
loop_start=27664
loop_xfade=21631
lovel=1
offset=5599
sample=Bass_a4_HardMallets_Center_Rim_Buzz_Roll_MP_D4_RR2.opus
</region>

<region>
hivel=127
key=D#2
loop_end=113425
loop_mode=loop_continuous
loop_start=21079
loop_xfade=21079
lovel=1
offset=481
sample=Bass_a4_HardMallets_Edge_Buzz_Roll_MP_D4_RR2.opus
</region>

<region>
hivel=127
key=E2
loop_end=112540
loop_mode=loop_continuous
loop_start=20914
loop_xfade=20914
lovel=1
offset=482
sample=Bass_a4_HardMallets_Halfway_Buzz_Roll_MP_D4_RR2.opus
</region>
</group>

<group>
amp_veltrack=0
ampeg_attack=0.001
ampeg_release=0.05
group_label=Rolls_RR2_52-77
seq_length=2
seq_position=2
xfin_hicc1=77
xfin_locc1=52
xfout_hicc1=102
xfout_locc1=77

<region>
hivel=127
key=D2
loop_end=112191
loop_mode=loop_continuous
loop_start=20849
loop_xfade=20849
lovel=1
offset=482
sample=Bass_a4_HardMallets_Center_Buzz_Roll_MF_D4_RR2.opus
</region>

<region>
hivel=127
key=F2
loop_end=115953
loop_mode=loop_continuous
loop_start=21549
loop_xfade=21549
lovel=1
offset=2825
sample=Bass_a4_HardMallets_Center_Rim_Buzz_Roll_MF_D4_RR2.opus
</region>

<region>
hivel=127
key=D#2
loop_end=113900
loop_mode=loop_continuous
loop_start=21167
loop_xfade=21167
lovel=1
offset=480
sample=Bass_a4_HardMallets_Edge_Buzz_Roll_MF_D4_RR2.opus
</region>

<region>
hivel=127
key=E2
loop_end=113291
loop_mode=loop_continuous
loop_start=21054
loop_xfade=21054
lovel=1
offset=481
sample=Bass_a4_HardMallets_Halfway_Buzz_Roll_MF_D4_RR2.opus
</region>
</group>

<group>
amp_veltrack=0
ampeg_attack=0.001
ampeg_release=0.05
group_label=Rolls_RR2_78-103
seq_length=2
seq_position=2
xfin_hicc1=103
xfin_locc1=78
xfout_hicc1=127
xfout_locc1=103

<region>
hivel=127
key=D2
loop_end=113538
loop_mode=loop_continuous
loop_start=21100
loop_xfade=21100
lovel=1
offset=482
sample=Bass_a4_HardMallets_Center_Buzz_Roll_F_D4_RR2.opus
</region>

<region>
hivel=127
key=F2
loop_end=113030
loop_mode=loop_continuous
loop_start=21005
loop_xfade=21005
lovel=1
offset=369
sample=Bass_a4_HardMallets_Center_Rim_Buzz_Roll_F_D4_RR2.opus
</region>

<region>
hivel=127
key=D#2
loop_end=112850
loop_mode=loop_continuous
loop_start=20972
loop_xfade=20972
lovel=1
offset=480
sample=Bass_a4_HardMallets_Edge_Buzz_Roll_F_D4_RR2.opus
</region>

<region>
hivel=127
key=E2
loop_end=113655
loop_mode=loop_continuous
loop_start=21122
loop_xfade=21122
lovel=1
offset=480
sample=Bass_a4_HardMallets_Halfway_Buzz_Roll_F_D4_RR2.opus
</region>
</group>

<group>
amp_veltrack=0
ampeg_attack=0.001
ampeg_release=0.05
group_label=Rolls_RR2_104-127
seq_length=2
seq_position=2
xfin_hicc1=127
xfin_locc1=104
xfout_hicc1=127
xfout_locc1=127

<region>
hivel=127
key=D2
loop_end=113141
loop_mode=loop_continuous
loop_start=21026
loop_xfade=21026
lovel=1
offset=481
sample=Bass_a4_HardMallets_Center_Buzz_Roll_FF_D4_RR2.opus
</region>

<region>
hivel=127
key=F2
loop_end=113784
loop_mode=loop_continuous
loop_start=21145
loop_xfade=21145
lovel=1
offset=431
sample=Bass_a4_HardMallets_Center_Rim_Buzz_Roll_FF_D4_RR2.opus
</region>

<region>
hivel=127
key=D#2
loop_end=112249
loop_mode=loop_continuous
loop_start=20860
loop_xfade=20860
lovel=1
offset=480
sample=Bass_a4_HardMallets_Edge_Buzz_Roll_FF_D4_RR2.opus
</region>

<region>
hivel=127
key=E2
loop_end=114107
loop_mode=loop_continuous
loop_start=21206
loop_xfade=21206
lovel=1
offset=481
sample=Bass_a4_HardMallets_Halfway_Buzz_Roll_FF_D4_RR2.opus
</region>
</group>

<group>
amp_veltrack=0
ampeg_attack=0.01
ampeg_release=0.65
group_label=Rolls_Release_RR1_0-25
seq_length=2
seq_position=1
trigger=release
xfin_hicc1=25
xfout_hicc1=50
xfout_locc1=25

<region>
hivel=127
key=D2
lovel=1
offset=128264
sample=Bass_a4_HardMallets_Center_Buzz_Roll_P_D4_RR1.opus
</region>

<region>
hivel=127
key=F2
lovel=1
offset=127359
sample=Bass_a4_HardMallets_Center_Rim_Buzz_Roll_P_D4_RR1.opus
</region>

<region>
hivel=127
key=D#2
lovel=1
offset=134277
sample=Bass_a4_HardMallets_Edge_Buzz_Roll_P_D4_RR1.opus
</region>

<region>
hivel=127
key=E2
lovel=1
offset=130073
sample=Bass_a4_HardMallets_Halfway_Buzz_Roll_P_D4_RR1.opus
</region>
</group>

<group>
amp_veltrack=0
ampeg_attack=0.01
ampeg_release=0.65
group_label=Rolls_Release_RR1_26-51
seq_length=2
seq_position=1
trigger=release
xfin_hicc1=51
xfin_locc1=26
xfout_hicc1=76
xfout_locc1=51

<region>
hivel=127
key=D2
lovel=1
offset=125448
sample=Bass_a4_HardMallets_Center_Buzz_Roll_MP_D4_RR1.opus
</region>

<region>
hivel=127
key=F2
lovel=1
offset=128110
sample=Bass_a4_HardMallets_Center_Rim_Buzz_Roll_MP_D4_RR1.opus
</region>

<region>
hivel=127
key=D#2
lovel=1
offset=131288
sample=Bass_a4_HardMallets_Edge_Buzz_Roll_MP_D4_RR1.opus
</region>

<region>
hivel=127
key=E2
lovel=1
offset=124594
sample=Bass_a4_HardMallets_Halfway_Buzz_Roll_MP_D4_RR1.opus
</region>
</group>

<group>
amp_veltrack=0
ampeg_attack=0.01
ampeg_release=0.65
group_label=Rolls_Release_RR1_52-77
seq_length=2
seq_position=1
trigger=release
xfin_hicc1=77
xfin_locc1=52
xfout_hicc1=102
xfout_locc1=77

<region>
hivel=127
key=D2
lovel=1
offset=124026
sample=Bass_a4_HardMallets_Center_Buzz_Roll_MF_D4_RR1.opus
</region>

<region>
hivel=127
key=F2
lovel=1
offset=128690
sample=Bass_a4_HardMallets_Center_Rim_Buzz_Roll_MF_D4_RR1.opus
</region>

<region>
hivel=127
key=D#2
lovel=1
offset=126485
sample=Bass_a4_HardMallets_Edge_Buzz_Roll_MF_D4_RR1.opus
</region>

<region>
hivel=127
key=E2
lovel=1
offset=128754
sample=Bass_a4_HardMallets_Halfway_Buzz_Roll_MF_D4_RR1.opus
</region>
</group>

<group>
amp_veltrack=0
ampeg_attack=0.01
ampeg_release=0.65
group_label=Rolls_Release_RR1_78-103
seq_length=2
seq_position=1
trigger=release
xfin_hicc1=103
xfin_locc1=78
xfout_hicc1=127
xfout_locc1=103

<region>
hivel=127
key=D2
lovel=1
offset=127568
sample=Bass_a4_HardMallets_Center_Buzz_Roll_F_D4_RR1.opus
</region>

<region>
hivel=127
key=F2
lovel=1
offset=124792
sample=Bass_a4_HardMallets_Center_Rim_Buzz_Roll_F_D4_RR1.opus
</region>

<region>
hivel=127
key=D#2
lovel=1
offset=130470
sample=Bass_a4_HardMallets_Edge_Buzz_Roll_F_D4_RR1.opus
</region>

<region>
hivel=127
key=E2
lovel=1
offset=127811
sample=Bass_a4_HardMallets_Halfway_Buzz_Roll_F_D4_RR1.opus
</region>
</group>

<group>
amp_veltrack=0
ampeg_attack=0.01
ampeg_release=0.65
group_label=Rolls_Release_RR1_104-127
seq_length=2
seq_position=1
trigger=release
xfin_hicc1=127
xfin_locc1=104
xfout_hicc1=127
xfout_locc1=127

<region>
hivel=127
key=D2
lovel=1
offset=127306
sample=Bass_a4_HardMallets_Center_Buzz_Roll_FF_D4_RR1.opus
</region>

<region>
hivel=127
key=F2
lovel=1
offset=123825
sample=Bass_a4_HardMallets_Center_Rim_Buzz_Roll_FF_D4_RR1.opus
</region>

<region>
hivel=127
key=D#2
lovel=1
offset=128257
sample=Bass_a4_HardMallets_Edge_Buzz_Roll_FF_D4_RR1.opus
</region>

<region>
hivel=127
key=E2
lovel=1
offset=129794
sample=Bass_a4_HardMallets_Halfway_Buzz_Roll_FF_D4_RR1.opus
</region>
</group>

<group>
amp_veltrack=0
ampeg_attack=0.01
ampeg_release=0.65
group_label=Rolls_Release_RR2_0-25
seq_length=2
seq_position=2
trigger=release
xfin_hicc1=25
xfout_hicc1=50
xfout_locc1=25

<region>
hivel=127
key=D2
lovel=1
offset=129499
sample=Bass_a4_HardMallets_Center_Buzz_Roll_P_D4_RR2.opus
</region>

<region>
hivel=127
key=F2
lovel=1
offset=128265
sample=Bass_a4_HardMallets_Center_Rim_Buzz_Roll_P_D4_RR2.opus
</region>

<region>
hivel=127
key=D#2
lovel=1
offset=133206
sample=Bass_a4_HardMallets_Edge_Buzz_Roll_P_D4_RR2.opus
</region>

<region>
hivel=127
key=E2
lovel=1
offset=131300
sample=Bass_a4_HardMallets_Halfway_Buzz_Roll_P_D4_RR2.opus
</region>
</group>

<group>
amp_veltrack=0
ampeg_attack=0.01
ampeg_release=0.65
group_label=Rolls_Release_RR2_26-51
seq_length=2
seq_position=2
trigger=release
xfin_hicc1=51
xfin_locc1=26
xfout_hicc1=76
xfout_locc1=51

<region>
hivel=127
key=D2
lovel=1
offset=124968
sample=Bass_a4_HardMallets_Center_Buzz_Roll_MP_D4_RR2.opus
</region>

<region>
hivel=127
key=F2
lovel=1
offset=128971
sample=Bass_a4_HardMallets_Center_Rim_Buzz_Roll_MP_D4_RR2.opus
</region>

<region>
hivel=127
key=D#2
lovel=1
offset=128295
sample=Bass_a4_HardMallets_Edge_Buzz_Roll_MP_D4_RR2.opus
</region>

<region>
hivel=127
key=E2
lovel=1
offset=124275
sample=Bass_a4_HardMallets_Halfway_Buzz_Roll_MP_D4_RR2.opus
</region>
</group>

<group>
amp_veltrack=0
ampeg_attack=0.01
ampeg_release=0.65
group_label=Rolls_Release_RR2_52-77
seq_length=2
seq_position=2
trigger=release
xfin_hicc1=77
xfin_locc1=52
xfout_hicc1=102
xfout_locc1=77

<region>
hivel=127
key=D2
lovel=1
offset=123198
sample=Bass_a4_HardMallets_Center_Buzz_Roll_MF_D4_RR2.opus
</region>

<region>
hivel=127
key=F2
lovel=1
offset=128164
sample=Bass_a4_HardMallets_Center_Rim_Buzz_Roll_MF_D4_RR2.opus
</region>

<region>
hivel=127
key=D#2
lovel=1
offset=126474
sample=Bass_a4_HardMallets_Edge_Buzz_Roll_MF_D4_RR2.opus
</region>

<region>
hivel=127
key=E2
lovel=1
offset=128184
sample=Bass_a4_HardMallets_Halfway_Buzz_Roll_MF_D4_RR2.opus
</region>
</group>

<group>
amp_veltrack=0
ampeg_attack=0.01
ampeg_release=0.65
group_label=Rolls_Release_RR2_78-103
seq_length=2
seq_position=2
trigger=release
xfin_hicc1=103
xfin_locc1=78
xfout_hicc1=127
xfout_locc1=103

<region>
hivel=127
key=D2
lovel=1
offset=128637
sample=Bass_a4_HardMallets_Center_Buzz_Roll_F_D4_RR2.opus
</region>

<region>
hivel=127
key=F2
lovel=1
offset=123840
sample=Bass_a4_HardMallets_Center_Rim_Buzz_Roll_F_D4_RR2.opus
</region>

<region>
hivel=127
key=D#2
lovel=1
offset=123574
sample=Bass_a4_HardMallets_Edge_Buzz_Roll_F_D4_RR2.opus
</region>

<region>
hivel=127
key=E2
lovel=1
offset=129881
sample=Bass_a4_HardMallets_Halfway_Buzz_Roll_F_D4_RR2.opus
</region>
</group>

<group>
amp_veltrack=0
ampeg_attack=0.01
ampeg_release=0.65
group_label=Rolls_Release_RR2_104-127
seq_length=2
seq_position=2
trigger=release
xfin_hicc1=127
xfin_locc1=104
xfout_hicc1=127
xfout_locc1=127

<region>
hivel=127
key=D2
lovel=1
offset=128399
sample=Bass_a4_HardMallets_Center_Buzz_Roll_FF_D4_RR2.opus
</region>

<region>
hivel=127
key=F2
lovel=1
offset=124307
sample=Bass_a4_HardMallets_Center_Rim_Buzz_Roll_FF_D4_RR2.opus
</region>

<region>
hivel=127
key=D#2
lovel=1
offset=126725
sample=Bass_a4_HardMallets_Edge_Buzz_Roll_FF_D4_RR2.opus
</region>

<region>
hivel=127
key=E2
lovel=1
offset=128599
sample=Bass_a4_HardMallets_Halfway_Buzz_Roll_FF_D4_RR2.opus
</region>
</group>